# AST/ASF file generated using VICON BodyLanguage
# -----------------------------------------------
:version 1.10
:name VICON
:units
  mass 1.0
  length 0.45
  angle deg
:documentation
   .ast/.asf automatically generated from VICON data using
   VICON BodyBuilder and BodyLanguage model FoxedUp or BRILLIANT.MOD
:root
   order TX TY TZ RX RY RZ
   axis XYZ
   position 0 0 0  
   orientation 0 0 0 
:bonedata
  begin
     id 1 
     name lhipjoint
     direction 0.627457 -0.725269 0.283342 
     length 2.53237 
     axis 0 0 0  XYZ
  end
  begin
     id 2 
     name lfemur
     direction 0.34202 -0.939693 0  
     length 7.32496  
     axis 0 0 20  XYZ
    dof rx ry rz
    limits (-160.0 20.0)
           (-70.0 70.0)
           (-60.0 70.0)
  end
  begin
     id 3 
     name ltibia
     direction 0.34202 -0.939693 0   
     length 7.69674   
     axis 0 0 20   XYZ
    dof rx
    limits (-10.0 170.0)
  end
  begin
     id 4 
     name lfoot
     direction 0.127289 -0.349722 0.928166   
     length 1.8612   
     axis -90 7.62852e-016 20   XYZ
    dof rx rz
    limits (-45.0 90.0)
           (-70.0 20.0)
  end
  begin
     id 5 
     name ltoes
     direction 1.53561e-011 -4.21864e-011 1   
     length 0.925608   
     axis -90 7.62852e-016 20   XYZ
    dof rx
    limits (-90.0 20.0)
  end
  begin
     id 6 
     name rhipjoint
     direction -0.609094 -0.738725 0.288599   
     length 2.48624  
     axis 0 0 0  XYZ 
  end
  begin
     id 7 
     name rfemur
     direction -0.34202 -0.939693 0   
     length 7.44259   
     axis 0 0 -20   XYZ
    dof rx ry rz
    limits (-160.0 20.0)
           (-70.0 70.0)
           (-70.0 60.0)
  end
  begin
     id 8 
     name rtibia
     direction -0.34202 -0.939693 0   
     length 7.7781   
     axis 0 0 -20   XYZ
    dof rx
    limits (-10.0 170.0)
 end
 begin
     id 9 
     name rfoot
     direction -0.107015 -0.294021 0.949789   
     length 2.14741  
     axis -90 -7.62852e-016 -20   XYZ
    dof rx rz
    limits (-45.0 90.0)
           (-20.0 70.0)
  end
  begin
     id 10 
     name rtoes
     direction -1.53497e-011 -4.21924e-011 1   
     length 1.0706   
     axis -90 -7.62852e-016 -20   XYZ
    dof rx
    limits (-90.0 20.0)
  end
  begin
     id 11 
     name lowerback
     direction -0.0142066 0.998112 -0.0597545   
     length 1.86627   
     axis 0 0 0   XYZ
    dof rx ry rz
    limits (-20.0 45.0)
           (-30.0 30.0)
           (-30.0 30.0)
  end
  begin
     id 12 
     name upperback
     direction 0.00547294 0.999744 0.0219437   
     length 1.86272   
     axis 0 0 0   XYZ
    dof rx ry rz
    limits (-20.0 45.0)
           (-30.0 30.0)
           (-30.0 30.0)
  end
  begin
     id 13 
     name thorax
     direction 0.0116162 0.998704 0.0495538   
     length 1.8703   
     axis 0 0 0   XYZ
    dof rx ry rz
    limits (-20.0 45.0)
           (-30.0 30.0)
           (-30.0 30.0)
  end
  begin
     id 14 
     name lowerneck
     direction -0.0106574 0.998739 0.0490586   
     length 1.8074   
     axis 0 0 0   XYZ
    dof rx ry rz
    limits (-20.0 45.0)
           (-30.0 30.0)
           (-30.0 30.0)
  end
  begin
     id 15 
     name upperneck
     direction 0.030527 0.976587 -0.212944   
     length 1.80681   
     axis 0 0 0   XYZ
    dof rx ry rz
    limits (-20.0 45.0)
           (-30.0 30.0)
           (-30.0 30.0)
  end
  begin
     id 16
     name head
     direction 0.00869225 0.997035 -0.0764531  
     length 1.8313  
     axis 0 0 0   XYZ
    dof rx ry rz
    limits (-20.0 45.0)
           (-30.0 30.0)
           (-30.0 30.0)
  end
  begin
     id 17 
     name lclavicle
     direction 0.915958 0.399447 0.0382386  
     length 3.78965  
     axis 0 0 0   XYZ
    dof ry rz
    limits (-20.0 10.0)
           (0.0 20.0)
  end
  begin
     id 18 
     name lhumerus
     direction 1 -4.48967e-011 3.19303e-027   
     length 4.78095   
     axis -180 -30 -90   XYZ
    dof rx ry rz
    limits (-60.0 90.0)
           (-90.0 90.0)
           (-90.0 90.0)
  end
  begin
     id 19
     name lradius
     direction 1 -4.48967e-011 -3.77974e-027   
     length 3.58615   
     axis -180 -30 -90   XYZ
    dof rx
    limits (-10.0 170.0)
  end
  begin
     id 20
     name lwrist
     direction 1 -4.48927e-011 1.2807e-027   
     length 1.79307   
     axis 1.91374e-015 90 90   XYZ
    dof ry
    limits (-180.0 0.0)
 end
  begin
     id 21 
     name lhand
     direction 1 -4.49036e-011 2.5614e-027   
     length 0.659812   
     axis -1.63439e-015 90 90   XYZ
    dof rx rz
    limits (-90.0 90.0)
           (-45.0 45.0)
  end
  begin
     id 22 
     name lfingers
     direction 1 -4.49052e-011 5.1228e-027   
     length 0.531957   
     axis -3.26879e-015 90 90   XYZ
    dof rx
    limits (0.0 90.0)
  end
  begin
     id 23
     name lthumb
     direction 0.707107 -6.35012e-011 0.707107   
     length 0.763787   
     axis -90 45 2.85299e-015   XYZ
    dof rx rz
    limits (-45.0 45.0)
           (-45.0 45.0)
  end
  begin
     id 24 
     name rclavicle
     direction -0.895351 0.435135 0.0948887   
     length 3.70497  
     axis 0 0 0   XYZ 
    dof ry rz
    limits (-10.0 20.0)
           (-20.0 0.0)
  end
  begin
     id 25 
     name rhumerus
     direction -1 -4.48971e-011 2.38946e-027  
     length 4.48913   
     axis -180 30 90   XYZ
    dof rx ry rz
    limits (-90.0 60.0)
           (-90.0 90.0)
           (-90.0 90.0)
  end
  begin
     id 26 
     name rradius
     direction -1 -4.4895e-011 4.38668e-027   
     length 3.7051   
     axis -180 30 90   XYZ
    dof rx
    limits (-10.0 170.0)
  end
  begin
     id 27 
     name rwrist
     direction -1 -4.49007e-011 1.2807e-027   
     length 1.85255   
     axis 1.91374e-015 -90 -90   XYZ
    dof ry
    limits (-180.0 0.0)
  end
  begin
     id 28
     name rhand
     direction -1 -4.48851e-011 2.5614e-027   
     length 0.449136   
     axis -1.63439e-015 -90 -90   XYZ
    dof rx rz
    limits (-90.0 90.0)
           (-45.0 45.0)
  end
  begin
     id 29
     name rfingers
     direction -1 -4.49128e-011 5.1228e-027   
     length 0.362105   
     axis -3.26879e-015 -90 -90   XYZ
    dof rx
    limits (0.0 90.0)
  end
  begin
     id 30
     name rthumb
     direction -0.707107 -6.34851e-011 0.707107   
     length 0.519912   
     axis -90 -45 -2.85299e-015   XYZ
    dof rx rz
    limits (-45.0 45.0)
           (-45.0 45.0)
  end
:hierarchy
  begin
    root lhipjoint rhipjoint lowerback
    lhipjoint lfemur
    lfemur ltibia
    ltibia lfoot
    lfoot ltoes
    rhipjoint rfemur
    rfemur rtibia
    rtibia rfoot
    rfoot rtoes
    lowerback upperback
    upperback thorax
    thorax lowerneck lclavicle rclavicle
    lowerneck upperneck
    upperneck head
    lclavicle lhumerus
    lhumerus lradius
    lradius lwrist
    lwrist lhand lthumb
    lhand lfingers
    rclavicle rhumerus
    rhumerus rradius
    rradius rwrist
    rwrist rhand rthumb
    rhand rfingers
  end

#!OML:ASF I:\Actors\actors\Patient Classification 2\Patient 1\Session 1\actor1.ASF
:FULLY-SPECIFIED
:DEGREES
82
root -0.721403 18.6558 5.9731 2.06831 -1.23063 -5.12336
lowerback 2.9968 0.545756 1.88711
upperback -1.97363 0.857339 1.1987
thorax -3.70365 0.394854 0.12385
lowerneck -11.0617 -1.01875 0.0611342
upperneck 20.262 -1.92954 2.34059
head 8.11893 -0.682154 0.569998
rclavicle 3.94463e-015 -1.07344e-014
rhumerus -50.7684 -1.91191 -84.0137
rradius 44.4144
rwrist 13.8167
rhand -0.283417 -37.61
rfingers 7.12502
rthumb 25.3189 -65.9495
lclavicle 3.94463e-015 -1.07344e-014
lhumerus -47.5671 3.96541 83.1328
lradius 44.4706
lwrist -4.22664
lhand -4.69535 -26.0471
lfingers 7.12502
lthumb 21.0861 2.82636
rfemur 7.0522 4.59481 19.4238
rtibia 4.77083e-015
rfoot -17.9572 -11.9513
rtoes -12.207
lfemur -6.60432 -4.18421 -8.64726
ltibia 24.9604
lfoot -22.7531 9.555
ltoes -56.62
83
root -0.7191 18.6553 5.96995 2.07554 -1.24745 -5.15044
lowerback 3.10589 0.533387 1.94568
upperback -1.91835 0.845451 1.19653
thorax -3.70748 0.387589 0.0886548
lowerneck -11.2465 -1.02451 0.0662866
upperneck 20.3495 -1.94345 2.34374
head 8.18209 -0.685673 0.568005
rclavicle 1.05449e-014 1.23246e-014
rhumerus -50.7049 -1.82298 -84.0997
rradius 44.4474
rwrist 13.7624
rhand -0.31683 -37.6097
rfingers 7.12502
rthumb 25.2869 -65.9537
lclavicle 1.05449e-014 1.23246e-014
lhumerus -47.4009 4.09883 83.0415
lradius 44.3469
lwrist -4.38328
lhand -4.69225 -26.2136
lfingers 7.12502
lthumb 21.0891 2.65959
rfemur 7.03026 4.61266 19.4475
rtibia 1.90833e-014
rfoot -17.9681 -11.9577
rtoes -12.0217
lfemur -6.65026 -4.13106 -8.62401
ltibia 25.0307
lfoot -22.7439 9.55334
ltoes -56.6486
84
root -0.71662 18.6543 5.9669 2.04098 -1.26724 -5.18477
lowerback 3.28189 0.539118 2.01944
upperback -1.86669 0.860855 1.19874
thorax -3.75244 0.393251 0.0470603
lowerneck -11.3125 -1.04693 -0.0539987
upperneck 20.3058 -1.97827 2.47618
head 8.18252 -0.698183 0.628235
rclavicle 6.39372e-015 1.82882e-014
rhumerus -50.6654 -1.73939 -84.161
rradius 44.4662
rwrist 13.7179
rhand -0.393576 -37.6223
rfingers 7.12502
rthumb 25.2133 -65.9767
lclavicle 6.39372e-015 1.82882e-014
lhumerus -47.27 4.15399 82.9852
lradius 44.1585
lwrist -4.38241
lhand -4.68203 -26.8327
lfingers 7.12502
lthumb 21.0989 2.03938
rfemur 7.05354 4.63416 19.4801
rtibia -1.74931e-014
rfoot -17.9729 -11.9815
rtoes -12.0113
lfemur -6.66048 -3.95908 -8.58327
ltibia 25.1091
lfoot -22.6973 9.42046
ltoes -56.6369
85
root -0.715157 18.6529 5.96286 1.98305 -1.28283 -5.20455
lowerback 3.52451 0.544439 2.04932
upperback -1.82928 0.876759 1.21786
thorax -3.85068 0.399992 0.0466016
lowerneck -11.2769 -1.04206 -0.153279
upperneck 20.1203 -1.96066 2.54485
head 8.11529 -0.692852 0.669331
rclavicle 1.76654e-014 3.18055e-015
rhumerus -50.6558 -1.62113 -84.1875
rradius 44.4857
rwrist 13.6614
rhand -0.44381 -37.5985
rfingers 7.12502
rthumb 25.1652 -65.9597
lclavicle 1.76654e-014 3.18055e-015
lhumerus -47.2295 4.13375 82.9752
lradius 43.975
lwrist -4.16977
lhand -4.76536 -27.8174
lfingers 7.12502
lthumb 21.0188 1.0636
rfemur 7.10061 4.65106 19.5019
rtibia -4.13472e-014
rfoot -17.9394 -12.0241
rtoes -12.2197
lfemur -6.65841 -3.79047 -8.55495
ltibia 25.186
lfoot -22.6644 9.26533
ltoes -56.5855
86
root -0.71505 18.6516 5.95646 1.91782 -1.24473 -5.20677
lowerback 3.77509 0.521277 2.01033
upperback -1.7768 0.851026 1.2376
thorax -3.9393 0.387952 0.0882025
lowerneck -11.2944 -1.03367 -0.0691784
upperneck 19.9622 -1.93759 2.43251
head 8.06337 -0.688141 0.619986
rclavicle 2.19323e-015 1.45113e-014
rhumerus -50.6301 -1.48167 -84.2691
rradius 44.5324
rwrist 13.6067
rhand -0.465641 -37.6479
rfingers 7.12502
rthumb 25.1443 -66.0119
lclavicle 2.19323e-015 1.45113e-014
lhumerus -47.1719 4.07281 83.0045
lradius 43.9247
lwrist -3.98777
lhand -4.84838 -28.237
lfingers 7.12502
lthumb 20.9391 0.652772
rfemur 7.15349 4.6137 19.5097
rtibia -9.54166e-015
rfoot -17.9132 -12.0417
rtoes -12.2213
lfemur -6.67615 -3.7133 -8.54427
ltibia 25.2602
lfoot -22.6027 9.17788
ltoes -56.6081
87
root -0.715022 18.6505 5.94794 1.852 -1.1779 -5.16838
lowerback 4.02471 0.493743 1.92061
upperback -1.70972 0.815078 1.23198
thorax -4.01254 0.372017 0.133069
lowerneck -11.3624 -1.05134 0.00289943
upperneck 19.8415 -1.9727 2.4272
head 8.03533 -0.700706 0.602088
rclavicle 7.64583e-015 -6.95746e-015
rhumerus -50.7646 -1.8739 -84.1478
rradius 44.7532
rwrist 14.1189
rhand -0.396328 -37.4659
rfingers 7.12502
rthumb 25.2107 -65.8206
lclavicle 7.64583e-015 -6.95746e-015
lhumerus -47.0252 4.0319 83.0345
lradius 43.8804
lwrist -3.94881
lhand -4.90958 -28.2187
lfingers 7.12502
lthumb 20.8803 0.677628
rfemur 7.20533 4.5464 19.4746
rtibia 7.95139e-015
rfoot -17.8798 -12.0509
rtoes -12.0771
lfemur -6.71365 -3.63995 -8.57458
ltibia 25.35
lfoot -22.4826 9.08929
ltoes -56.6825
88
root -0.713347 18.6489 5.93895 1.77287 -1.13757 -5.12539
lowerback 4.31265 0.488373 1.88198
upperback -1.64104 0.811716 1.21009
thorax -4.10449 0.370599 0.129915
lowerneck -11.4544 -1.07913 -0.0508223
upperneck 19.7141 -2.02169 2.54149
head 8.01211 -0.71742 0.643299
rclavicle -8.10358e-015 -4.77083e-015
rhumerus -50.9565 -2.26192 -84.0374
rradius 45.0479
rwrist 14.5451
rhand -0.333723 -37.1835
rfingers 7.12502
rthumb 25.2707 -65.5297
lclavicle -8.10358e-015 -4.77083e-015
lhumerus -46.8628 3.96769 83.0976
lradius 43.8072
lwrist -3.96854
lhand -5.03593 -28.2654
lfingers 7.12502
lthumb 20.7589 0.644252
rfemur 7.27233 4.50588 19.4285
rtibia -3.18055e-015
rfoot -17.8569 -12.0471
rtoes -11.8969
lfemur -6.74282 -3.58504 -8.61818
ltibia 25.4707
lfoot -22.4195 9.02921
ltoes -56.7331
89
root -0.710985 18.6475 5.92951 1.71235 -1.11312 -5.17454
lowerback 4.6049 0.484344 1.95099
upperback -1.56332 0.817522 1.21319
thorax -4.18844 0.371335 0.0915195
lowerneck -11.6099 -1.0862 -0.0514051
upperneck 19.5498 -2.0261 2.53343
head 7.98559 -0.720817 0.639303
rclavicle 5.55976e-015 -3.18055e-015
rhumerus -50.818 -1.57066 -84.4798
rradius 45.0979
rwrist 13.844
rhand -0.537162 -37.3337
rfingers 7.12502
rthumb 25.0758 -65.7074
lclavicle 5.55976e-015 -3.18055e-015
lhumerus -46.708 3.82507 83.2173
lradius 43.7986
lwrist -3.93182
lhand -5.19004 -28.3114
lfingers 7.12502
lthumb 20.6108 0.614353
rfemur 7.31322 4.48375 19.4786
rtibia -1.90833e-014
rfoot -17.8638 -12.0456
rtoes -11.6382
lfemur -6.80383 -3.57233 -8.562
ltibia 25.6154
lfoot -22.4419 8.967
ltoes -56.6959
90
root -0.709893 18.6464 5.91773 1.67457 -1.08018 -5.29752
lowerback 4.91128 0.465505 2.06071
upperback -1.49888 0.808193 1.23579
thorax -4.29414 0.363487 0.0515569
lowerneck -11.7549 -1.09439 -0.00422053
upperneck 19.3283 -2.03273 2.48975
head 7.93738 -0.726018 0.615319
rclavicle 3.02836e-015 -1.51076e-014
rhumerus -50.669 -0.865129 -84.9569
rradius 45.095
rwrist 13.2703
rhand -0.823846 -37.5199
rfingers 7.12502
rthumb 24.801 -65.9317
lclavicle 3.02836e-015 -1.51076e-014
lhumerus -46.5841 3.63463 83.3506
lradius 43.8341
lwrist -3.80298
lhand -5.39952 -28.3276
lfingers 7.12502
lthumb 20.4095 0.619787
rfemur 7.31589 4.45457 19.616
rtibia 1.59028e-014
rfoot -17.8209 -12.1014
rtoes -11.6597
lfemur -6.90406 -3.52305 -8.40958
ltibia 25.7722
lfoot -22.4164 8.86303
ltoes -56.6575
91
root -0.709279 18.6449 5.90465 1.59522 -1.05458 -5.3789
lowerback 5.26646 0.452075 2.14018
upperback -1.4248 0.804584 1.22321
thorax -4.41722 0.358626 -0.00863975
lowerneck -11.9123 -1.14407 -0.0392993
upperneck 19.1052 -2.10893 2.58472
head 7.89437 -0.756797 0.643669
rclavicle 3.44146e-015 7.95139e-015
rhumerus -50.6681 -0.702849 -85.2144
rradius 45.1988
rwrist 13.2141
rhand -1.0295 -37.5385
rfingers 7.12502
rthumb 24.6039 -65.9773
lclavicle 3.44146e-015 7.95139e-015
lhumerus -46.4703 3.41351 83.4702
lradius 43.9068
lwrist -3.59309
lhand -5.61452 -28.2914
lfingers 7.12502
lthumb 20.2029 0.677974
rfemur 7.35942 4.43142 19.7188
rtibia -2.38542e-014
rfoot -17.7054 -12.239
rtoes -12.3136
lfemur -6.96455 -3.39136 -8.29659
ltibia 25.9341
lfoot -22.2907 8.7467
ltoes -56.7551
92
root -0.708487 18.6419 5.89233 1.4776 -1.0517 -5.37308
lowerback 5.63952 0.446568 2.12925
upperback -1.32893 0.80408 1.17786
thorax -4.52825 0.357457 -0.0524378
lowerneck -12.0917 -1.18707 -0.113473
upperneck 18.8821 -2.18505 2.76456
head 7.85696 -0.781957 0.706363
rclavicle 2.96935e-015 2.78299e-015
rhumerus -50.6587 -0.491445 -85.5275
rradius 45.3551
rwrist 12.9341
rhand -1.14254 -37.5697
rfingers 7.12502
rthumb 24.4956 -66.0232
lclavicle 2.96935e-015 2.78299e-015
lhumerus -46.3396 3.17762 83.5748
lradius 44.0242
lwrist -3.22836
lhand -5.71533 -28.216
lfingers 7.12502
lthumb 20.106 0.763632
rfemur 7.44391 4.42892 19.7269
rtibia -9.54166e-015
rfoot -17.5726 -12.3753
rtoes -13.0139
lfemur -6.97278 -3.29557 -8.29807
ltibia 26.0936
lfoot -22.2227 8.66985
ltoes -56.8034
93
root -0.707918 18.6386 5.8799 1.3809 -1.04456 -5.35749
lowerback 5.99246 0.440912 2.06446
upperback -1.23957 0.799878 1.16179
thorax -4.63574 0.356345 -0.0352384
lowerneck -12.231 -1.20994 -0.168879
upperneck 18.6045 -2.22297 2.88852
head 7.79294 -0.794033 0.751433
rclavicle 2.25496e-014 8.34896e-015
rhumerus -50.6965 -0.147158 -85.8407
rradius 45.6443
rwrist 12.4475
rhand -1.02077 -37.6166
rfingers 7.12502
rthumb 24.6123 -66.0543
lclavicle 2.25496e-014 8.34896e-015
lhumerus -46.2271 2.85779 83.8026
lradius 44.3775
lwrist -2.65337
lhand -5.64116 -27.4787
lfingers 7.12502
lthumb 20.1773 1.49344
rfemur 7.5015 4.422 19.7196
rtibia -2.06736e-014
rfoot -17.4559 -12.4838
rtoes -13.4169
lfemur -6.99867 -3.29268 -8.32207
ltibia 26.248
lfoot -22.2468 8.62296
ltoes -56.716
